<?xml version="1.0" standalone="no"?>
<!DOCTYPE svg PUBLIC "-//W3C//DTD SVG 20010904//EN"
 "http://www.w3.org/TR/2001/REC-SVG-20010904/DTD/svg10.dtd">
<svg version="1.0" xmlns="http://www.w3.org/2000/svg"
 width="2504.000000pt" height="2504.000000pt" viewBox="0 0 2504.000000 2504.000000"
 preserveAspectRatio="xMidYMid meet">
<metadata>
Created by potrace 1.11, written by Peter Selinger 2001-2013
</metadata>
<g transform="translate(0.000000,2504.000000) scale(0.100000,-0.100000)"
fill="#000000" stroke="none">
<path d="M12020 25024 c-30 -2 -140 -8 -245 -14 -2417 -134 -4768 -993 -6735
-2459 -727 -542 -1435 -1205 -2031 -1901 -1160 -1355 -2025 -2961 -2515 -4670
-447 -1557 -587 -3213 -408 -4845 195 -1787 771 -3496 1700 -5045 432 -721
934 -1394 1509 -2025 170 -187 642 -656 835 -829 2070 -1863 4637 -2971 7390
-3190 381 -31 665 -39 1158 -33 689 7 1145 44 1787 143 2332 359 4539 1396
6330 2972 851 750 1622 1643 2235 2592 1128 1744 1797 3709 1964 5770 54 659
54 1398 1 2060 -100 1236 -386 2456 -845 3605 -253 635 -606 1337 -965 1920
-959 1559 -2259 2897 -3795 3907 -1713 1127 -3676 1814 -5710 1997 -124 12
-295 26 -380 32 -146 10 -1161 21 -1280 13z m940 -6449 c490 -43 934 -136
1410 -295 1178 -393 2196 -1130 2949 -2135 1027 -1371 1425 -3132 1090 -4825
-290 -1470 -1120 -2787 -2324 -3689 -2164 -1620 -5141 -1620 -7300 -1 -1296
973 -2150 2412 -2379 4010 -45 308 -59 519 -59 860 0 319 8 465 43 755 248
2041 1532 3834 3390 4734 555 269 1171 458 1781 545 163 24 449 51 619 60 147
7 608 -4 780 -19z"/>
<path d="M12105 17504 c-315 -26 -612 -72 -881 -139 -1203 -297 -2260 -1042
-2949 -2075 -147 -220 -210 -329 -321 -550 -272 -544 -432 -1092 -501 -1720
-22 -205 -25 -784 -5 -980 69 -660 232 -1226 518 -1791 727 -1439 2112 -2447
3698 -2690 459 -70 945 -77 1411 -18 944 119 1816 501 2575 1127 147 122 499
473 622 622 497 600 832 1257 1019 1998 150 595 187 1238 108 1862 -191 1511
-1085 2875 -2399 3657 -622 370 -1295 595 -2031 679 -138 15 -738 28 -864 18z"/>
</g>
</svg>
