<?xml version="1.0" standalone="no"?>
<!DOCTYPE svg PUBLIC "-//W3C//DTD SVG 20010904//EN"
 "http://www.w3.org/TR/2001/REC-SVG-20010904/DTD/svg10.dtd">
<svg version="1.0" xmlns="http://www.w3.org/2000/svg"
 width="260.000000pt" height="260.000000pt" viewBox="0 0 260.000000 260.000000"
 preserveAspectRatio="xMidYMid meet">
<metadata>
Created by potrace 1.11, written by Peter Selinger 2001-2013
</metadata>
<g transform="translate(0.000000,260.000000) scale(0.100000,-0.100000)"
fill="#000000" stroke="none">
<path d="M660 2004 c-146 -23 -262 -84 -370 -196 -255 -261 -256 -675 -3 -935
159 -164 364 -232 598 -200 244 33 474 240 541 484 32 117 26 282 -14 410 -36
112 -159 266 -274 341 -51 33 -175 90 -198 90 -3 0 -21 3 -40 7 -64 12 -164
11 -240 -1z m229 -349 c83 -29 148 -89 189 -175 23 -47 27 -68 27 -145 -1 -77
-5 -97 -27 -141 -37 -70 -100 -131 -167 -162 -82 -37 -193 -36 -276 2 -259
118 -263 478 -8 610 70 36 180 41 262 11z"/>
<path d="M1633 1820 c-99 -45 -130 -168 -64 -254 43 -58 78 -66 276 -66 96 0
175 -2 175 -5 0 -5 -237 -304 -250 -315 -3 -3 -48 -59 -100 -125 -52 -66 -100
-126 -107 -133 -19 -20 -35 -92 -29 -126 10 -48 51 -101 93 -121 35 -17 71
-19 398 -20 198 0 377 3 397 8 45 11 104 68 114 111 22 88 -10 162 -86 201
-30 15 -62 18 -217 18 -127 1 -180 4 -174 11 17 24 87 112 96 122 36 39 362
450 371 467 29 55 20 136 -21 185 -47 56 -49 56 -457 58 -336 1 -382 -1 -415
-16z"/>
</g>
</svg>
